<svg viewBox="0 0 128.343 128" xml:space="preserve" xmlns="http://www.w3.org/2000/svg" enable-background="new 0 0 128.34296 128"><path d="m121.113 123.622-23.115-23.115a29.97 29.97 0 0 0 2.734-3.65l-5.522-5.521c-12.466 10.908-31.415 9.646-42.324-2.82a29.993 29.993 0 0 1-6.835-13.847c-3.367 16.219 7.052 32.096 23.27 35.463a29.993 29.993 0 0 0 25.849-6.796l23.115 23.115a2 2 0 0 0 2.828-2.828z" fill="#dededd" class="fill-dededd"></path><path d="M72 128H0v-4h128v4H72" fill="#3366cc" class="fill-5fe0ed"></path><path d="M51 95h2v24h-2z" fill="#353535" class="fill-353535"></path><path d="M83 124H5v-6h78v6zm-76-2h74v-2H7v2z" fill="#353535" class="fill-353535"></path><path d="M85 128H3v-6h82v6zm-80-2h78v-2H5v2z" fill="#353535" class="fill-353535"></path><path d="M25 25.167a13.7 13.7 0 0 0-9.633-.132l-.367.132V39h10V25.167zM41 25.167a13.7 13.7 0 0 0-9.633-.132l-.367.132V39h10V25.167zM57 25.167a13.7 13.7 0 0 0-9.633-.132l-.367.132V39h10V25.167zM25 45.167a13.7 13.7 0 0 0-9.633-.132l-.367.132V59h10V45.167zM41 45.167a13.7 13.7 0 0 0-9.633-.132l-.367.132V59h10V45.167zM25 65.167a13.7 13.7 0 0 0-9.633-.132l-.367.132V79h10V65.167z" fill="#3366cc" class="fill-5fe0ed"></path><path d="M79 20.015h2V39h-2zM81 120l-74-.018V90H5v-6h2V20.015h2V86H7v2h2v29.983L79 118V98h2z" fill="#353535" class="fill-353535"></path><path d="M53 90H5v-6h45v2H7v2h46z" fill="#353535" class="fill-353535"></path><path d="M25 96.167a13.7 13.7 0 0 0-9.633-.132l-.367.132V110h10V96.167zM41 96.167a13.7 13.7 0 0 0-9.633-.132l-.367.132V110h10V96.167z" fill="#3366cc" class="fill-5fe0ed"></path><path d="M60 120H44V94h16v26zm-14-2h12V96H46v22z" fill="#353535" class="fill-353535"></path><path d="M81 0H5L1 21h84z" fill="#dededd" class="fill-ff5a5a"></path><path d="M102.723 93.193a30.083 30.083 0 0 0 2.107-18.333 29.84 29.84 0 0 1-6.792 13.647l4.685 4.686z" fill="#dededd" class="fill-dededd"></path><path d="M125.343 121.641a2.98 2.98 0 0 1-2.121-.879l-29.11-29.11 1.413-1.415 29.111 29.111a1.023 1.023 0 0 0 1.414 0c.39-.39.39-1.023 0-1.414L96.94 88.823l1.414-1.414 29.11 29.11a3 3 0 0 1-2.12 5.122z" fill="#353535" class="fill-353535"></path><path d="M60.456 53.913c9.723-9.72 25.198-10.583 35.941-2.002-9.296-11.66-26.284-13.575-37.943-4.279s-13.575 26.284-4.279 37.943a27 27 0 0 0 4.279 4.28c-8.58-10.744-7.719-26.219 2.002-35.942z" fill="#dededd" class="fill-dededd"></path><path transform="rotate(-45 104.258 97.555)" d="M102.258 96.556h4v2h-4z" fill="#353535" class="fill-353535"></path><path d="M75.463 99.746C58.35 99.735 44.487 85.853 44.498 68.74c.011-17.112 13.893-30.976 31.006-30.965 17.112.012 30.976 13.893 30.965 31.006a30.985 30.985 0 0 1-9.086 21.9 30.904 30.904 0 0 1-21.92 9.065zm0-59.986c-16.017 0-29.001 12.984-29.001 29s12.983 29.001 29 29.001 29-12.984 29-29a29 29 0 0 0-8.493-20.507 28.809 28.809 0 0 0-20.507-8.494z" fill="#353535" class="fill-353535"></path><g><path d="M58 66h12v10H58zM72 66h22v2H72zM72 70h18v2H72z" fill="#dededd" class="fill-dededd"></path></g><g><path d="M58 80h12v10H58zM72 80h22v2H72zM72 84h18v2H72z" fill="#dededd" class="fill-dededd"></path></g><g><path d="M58 52h12v10H58zM72 52h22v2H72zM72 56h18v2H72z" fill="#dededd" class="fill-dededd"></path></g><circle cx="116" cy="86" r="2" fill="#3366cc" class="fill-5fe0ed"></circle><g><path transform="rotate(-30.002 113.999 27.804)" d="M113 26.804h2v2h-2z" fill="#dededd" class="fill-dededd"></path><path transform="rotate(-30.002 119.999 38.196)" d="M119 37.196h2v2h-2z" fill="#dededd" class="fill-dededd"></path><path transform="rotate(-59.998 111.804 30)" d="M110.804 29h2v2h-2z" fill="#dededd" class="fill-dededd"></path><path transform="rotate(-59.998 122.197 36)" d="M121.196 35h2v2h-2z" fill="#dededd" class="fill-dededd"></path><path d="M110 32h2v2h-2zM122 32h2v2h-2z" fill="#dededd" class="fill-dededd"></path><path transform="rotate(-29.995 111.804 36)" d="M110.804 35h2v2h-2z" fill="#dededd" class="fill-dededd"></path><path transform="rotate(-29.995 122.196 30)" d="M121.196 29h2v2h-2z" fill="#dededd" class="fill-dededd"></path><path transform="rotate(-60.005 114 38.196)" d="M113 37.196h2v2h-2z" fill="#dededd" class="fill-dededd"></path><path transform="rotate(-60.005 120 27.804)" d="M119 26.804h2v2h-2z" fill="#dededd" class="fill-dededd"></path><path d="M116 38h2v2h-2zM116 26h2v2h-2z" fill="#dededd" class="fill-dededd"></path></g><g><circle cx="36" cy="71" r="1.5" fill="#ffffff" class="fill-fede31"></circle><path d="M36 76a5 5 0 1 1 0-10 5 5 0 0 1 0 10zm0-8a3 3 0 1 0 0 6 3 3 0 0 0 0-6z" fill="#ffffff" class="fill-fede31"></path></g><path d="M128 58.17a1.905 1.905 0 0 0-3.117-1.48 5.953 5.953 0 0 0-11.591-.183A2.978 2.978 0 0 0 108 58.383h19.979c.01-.07.018-.142.021-.213zM104 35.787a1.905 1.905 0 0 0-3.117-1.48 5.953 5.953 0 0 0-11.591-.183A2.978 2.978 0 0 0 84 36h19.979c.01-.07.018-.141.021-.213z" fill="#3366cc" class="fill-5fe0ed"></path><circle cx="68" cy="32" r="2" fill="#3366cc" class="fill-5fe0ed"></circle></svg>